<?xml version="1.0" encoding="utf-8"?>
<!-- Generator: Adobe Illustrator 21.0.2, SVG Export Plug-In . SVG Version: 6.00 Build 0)  -->
<svg version="1.1" id="Layer_2" xmlns="http://www.w3.org/2000/svg" xmlns:xlink="http://www.w3.org/1999/xlink" x="0px" y="0px"
	 viewBox="0 0 219.4 87.4" style="enable-background:new 0 0 219.4 87.4;" xml:space="preserve">
<style type="text/css">
	.st0{fill:none;}
</style>
<g>
	<g>
		<path d="M3.8,43h6.2v-3.8c0-0.7,0-1.1-0.1-1.3c-0.1-0.2-0.2-0.3-0.4-0.4c-0.3-0.2-0.6-0.2-0.9-0.2H8v-0.4h5.7v0.4h-0.5
			c-0.3,0-0.6,0.1-0.9,0.2c-0.2,0.1-0.4,0.3-0.4,0.5s-0.1,0.6-0.1,1.3v8.5c0,0.7,0,1.1,0.1,1.3c0.1,0.2,0.2,0.3,0.4,0.4
			c0.3,0.2,0.6,0.2,0.9,0.2h0.5v0.4H8v-0.4h0.5c0.5,0,0.9-0.2,1.2-0.5c0.2-0.2,0.2-0.7,0.2-1.5v-4H3.8v4c0,0.7,0,1.1,0.1,1.3
			c0.1,0.2,0.2,0.3,0.4,0.4c0.3,0.2,0.6,0.2,0.9,0.2h0.5v0.4H0v-0.4h0.5c0.5,0,0.9-0.2,1.2-0.5c0.2-0.2,0.2-0.7,0.2-1.5v-8.5
			c0-0.7,0-1.1-0.1-1.3c-0.1-0.2-0.2-0.3-0.4-0.4c-0.3-0.2-0.6-0.2-0.9-0.2H0v-0.4h5.7v0.4H5.2c-0.3,0-0.6,0.1-0.9,0.2
			c-0.2,0.1-0.3,0.3-0.4,0.5s-0.1,0.6-0.1,1.3V43z"/>
		<path d="M22.9,45.7h-5.1l-0.9,2.1c-0.2,0.5-0.3,0.9-0.3,1.2c0,0.2,0.1,0.4,0.3,0.5s0.6,0.3,1.2,0.3v0.4h-4.2v-0.4
			c0.6-0.1,0.9-0.2,1.1-0.4c0.3-0.3,0.7-0.9,1.1-1.9l4.7-10.9h0.3l4.6,11c0.4,0.9,0.7,1.5,1,1.7s0.7,0.4,1.3,0.4v0.4h-5.2v-0.4
			c0.5,0,0.9-0.1,1.1-0.3s0.3-0.3,0.3-0.5c0-0.3-0.1-0.7-0.4-1.4L22.9,45.7z M22.6,45l-2.2-5.4L18.1,45H22.6z"/>
		<path d="M34,49.8v0.4h-5.7v-0.4h0.5c0.5,0,0.9-0.2,1.2-0.5c0.2-0.2,0.2-0.7,0.2-1.5v-8.6c0-0.7,0-1.1-0.1-1.3
			c-0.1-0.2-0.2-0.3-0.4-0.4c-0.3-0.2-0.6-0.2-0.9-0.2h-0.5v-0.4H34v0.4h-0.5c-0.5,0-0.9,0.2-1.2,0.5c-0.2,0.2-0.2,0.7-0.2,1.5v8.6
			c0,0.7,0,1.1,0.1,1.3c0.1,0.2,0.2,0.3,0.4,0.4c0.3,0.2,0.6,0.2,0.9,0.2H34z"/>
		<path d="M47.6,50.1h-3.5l-4.5-6.2c-0.3,0-0.6,0-0.8,0c-0.1,0-0.2,0-0.3,0s-0.2,0-0.3,0v3.8c0,0.8,0.1,1.4,0.3,1.6
			c0.2,0.3,0.6,0.4,1.1,0.4h0.5v0.4h-5.7v-0.4H35c0.6,0,1-0.2,1.2-0.5c0.1-0.2,0.2-0.7,0.2-1.4v-8.6c0-0.8-0.1-1.4-0.3-1.6
			c-0.3-0.3-0.6-0.4-1.1-0.4h-0.5v-0.4h4.8c1.4,0,2.4,0.1,3.1,0.3s1.2,0.6,1.7,1.1s0.7,1.2,0.7,2c0,0.8-0.3,1.5-0.8,2.1
			s-1.4,1-2.5,1.3l2.7,3.8c0.6,0.9,1.2,1.5,1.6,1.7s1,0.5,1.8,0.5V50.1z M38.2,43.3c0.1,0,0.2,0,0.3,0s0.2,0,0.2,0
			c1.3,0,2.2-0.3,2.9-0.8s1-1.2,1-2.1c0-0.8-0.3-1.5-0.8-2s-1.2-0.8-2.1-0.8c-0.4,0-0.9,0.1-1.5,0.2V43.3z"/>
		<path d="M62,41.6h4.1V42c-0.6,0-1,0.2-1.3,0.4s-0.7,0.8-1.3,1.9s-1.2,2-1.9,2.9c0.6,0.7,1.1,1.2,1.6,1.4s0.9,0.4,1.4,0.4
			c0.4,0,0.8-0.1,1.1-0.4s0.5-0.6,0.7-1.1l0.4,0.3c-0.2,0.9-0.6,1.6-1.2,2s-1.2,0.7-1.9,0.7c-0.5,0-1.1-0.1-1.6-0.4
			s-1.2-0.8-1.8-1.5c-0.8,0.7-1.5,1.2-2.2,1.5s-1.3,0.4-2.1,0.4c-1.1,0-1.9-0.3-2.6-0.9s-0.9-1.3-0.9-2.1c0-0.8,0.3-1.6,0.8-2.4
			s1.6-1.6,3.2-2.4c-0.3-0.7-0.5-1.2-0.6-1.7s-0.2-0.8-0.2-1.2c0-1.1,0.4-2,1.2-2.5c0.6-0.5,1.4-0.7,2.2-0.7c0.8,0,1.4,0.2,1.9,0.7
			s0.7,1,0.7,1.7c0,0.7-0.2,1.3-0.7,1.8s-1.3,1.1-2.5,1.7c0.8,1.5,1.7,2.8,2.6,4c1.1-1.4,1.7-2.5,1.7-3.5c0-0.3-0.1-0.6-0.3-0.8
			C62.4,42.1,62.2,42,62,42V41.6z M59.7,48c-0.9-1.2-1.5-2-1.8-2.6s-0.7-1.2-1.1-2c-0.8,0.4-1.4,0.9-1.8,1.5s-0.6,1.1-0.6,1.8
			c0,0.7,0.2,1.3,0.7,1.8s1.1,0.8,1.8,0.8c0.4,0,0.8-0.1,1.2-0.2S59.1,48.5,59.7,48z M58.2,41.9c0.8-0.4,1.4-0.8,1.8-1.3
			s0.6-1,0.6-1.6c0-0.5-0.1-0.9-0.4-1.2s-0.6-0.5-1.1-0.5c-0.6,0-1,0.2-1.3,0.6s-0.4,0.8-0.4,1.2c0,0.3,0.1,0.7,0.2,1.1
			S57.9,41.1,58.2,41.9z"/>
		<path d="M80.8,43.4c0.9,0.2,1.6,0.5,2.1,0.9c0.6,0.6,0.9,1.3,0.9,2.2c0,0.7-0.2,1.3-0.6,1.9s-1,1-1.7,1.3s-1.8,0.4-3.3,0.4h-6.2
			v-0.4h0.5c0.6,0,1-0.2,1.2-0.5c0.1-0.2,0.2-0.7,0.2-1.5v-8.6c0-0.8-0.1-1.3-0.3-1.6c-0.3-0.3-0.6-0.4-1.1-0.4h-0.5v-0.4h5.7
			c1.1,0,1.9,0.1,2.6,0.2c1,0.2,1.7,0.6,2.2,1.2s0.8,1.3,0.8,2.1c0,0.7-0.2,1.3-0.6,1.8S81.6,43.1,80.8,43.4z M75.7,42.8
			c0.2,0,0.5,0.1,0.8,0.1s0.6,0,1,0c1,0,1.7-0.1,2.1-0.3s0.8-0.5,1.1-0.9s0.4-0.9,0.4-1.4c0-0.8-0.3-1.4-0.9-2s-1.6-0.8-2.8-0.8
			c-0.7,0-1.2,0.1-1.8,0.2V42.8z M75.7,49.2c0.8,0.2,1.5,0.3,2.2,0.3c1.2,0,2.1-0.3,2.7-0.8s0.9-1.2,0.9-2c0-0.5-0.1-1-0.4-1.5
			s-0.7-0.8-1.4-1.1s-1.4-0.4-2.3-0.4c-0.4,0-0.7,0-1,0s-0.5,0-0.7,0.1V49.2z"/>
		<path d="M88.7,37.6v5.2h2.9c0.8,0,1.3-0.1,1.5-0.3c0.3-0.3,0.5-0.8,0.6-1.6h0.4v4.6h-0.4c-0.1-0.6-0.2-1.1-0.3-1.2
			c-0.1-0.2-0.3-0.4-0.6-0.5s-0.7-0.2-1.2-0.2h-2.9v4.4c0,0.6,0,0.9,0.1,1.1s0.1,0.2,0.3,0.3s0.4,0.1,0.7,0.1h2.2
			c0.7,0,1.3-0.1,1.6-0.2s0.7-0.3,1-0.6c0.4-0.4,0.8-1,1.2-1.8h0.4l-1.1,3.3H85v-0.4h0.5c0.3,0,0.6-0.1,0.9-0.2
			c0.2-0.1,0.3-0.3,0.4-0.5s0.1-0.6,0.1-1.3v-8.6c0-0.8-0.1-1.4-0.3-1.6c-0.2-0.3-0.6-0.4-1.2-0.4H85v-0.4h10.2l0.1,2.9h-0.4
			c-0.1-0.7-0.3-1.2-0.5-1.4s-0.4-0.5-0.7-0.6c-0.3-0.1-0.7-0.1-1.4-0.1H88.7z"/>
		<path d="M105.6,45.7h-5.1l-0.9,2.1c-0.2,0.5-0.3,0.9-0.3,1.2c0,0.2,0.1,0.4,0.3,0.5s0.6,0.3,1.2,0.3v0.4h-4.2v-0.4
			c0.6-0.1,0.9-0.2,1.1-0.4c0.3-0.3,0.7-0.9,1.1-1.9l4.7-10.9h0.3l4.6,11c0.4,0.9,0.7,1.5,1,1.7s0.7,0.4,1.3,0.4v0.4h-5.2v-0.4
			c0.5,0,0.9-0.1,1.1-0.3s0.3-0.3,0.3-0.5c0-0.3-0.1-0.7-0.4-1.4L105.6,45.7z M105.3,45l-2.2-5.4l-2.3,5.4H105.3z"/>
		<path d="M120,37.2v-0.4h4.7v0.4h-0.5c-0.5,0-0.9,0.2-1.2,0.7c-0.1,0.2-0.2,0.7-0.2,1.4v5.4c0,1.3-0.1,2.4-0.4,3.1
			s-0.8,1.4-1.6,1.9s-1.8,0.8-3.1,0.8c-1.4,0-2.5-0.3-3.3-0.8s-1.3-1.2-1.6-2c-0.2-0.6-0.3-1.7-0.3-3.3v-5.2c0-0.8-0.1-1.3-0.3-1.6
			s-0.6-0.4-1.1-0.4h-0.5v-0.4h5.7v0.4h-0.5c-0.5,0-0.9,0.2-1.2,0.5c-0.2,0.2-0.2,0.7-0.2,1.5V45c0,0.5,0,1.1,0.1,1.8
			s0.3,1.2,0.5,1.6s0.6,0.7,1.1,0.9s1,0.4,1.7,0.4c0.9,0,1.6-0.2,2.3-0.6s1.2-0.9,1.4-1.5s0.4-1.6,0.4-3v-5.4c0-0.8-0.1-1.3-0.3-1.6
			c-0.3-0.3-0.6-0.4-1.1-0.4H120z"/>
		<path d="M136.2,36.9l0.1,3.1h-0.4c-0.1-0.5-0.2-0.9-0.3-1.2c-0.2-0.4-0.5-0.7-0.8-0.8s-0.8-0.3-1.3-0.3h-1.9v10.1
			c0,0.8,0.1,1.3,0.3,1.5c0.2,0.3,0.6,0.4,1.1,0.4h0.5v0.4h-5.6v-0.4h0.5c0.6,0,1-0.2,1.2-0.5c0.1-0.2,0.2-0.7,0.2-1.4V37.7h-1.6
			c-0.6,0-1.1,0-1.3,0.1c-0.3,0.1-0.6,0.4-0.9,0.7s-0.4,0.8-0.4,1.4h-0.4l0.2-3.1H136.2z"/>
		<path d="M146,36.9h4.6v0.4h-0.3c-0.2,0-0.4,0.1-0.7,0.2s-0.6,0.4-0.9,0.6s-0.6,0.7-1,1.4l-3.2,5v3.3c0,0.8,0.1,1.3,0.3,1.5
			c0.2,0.3,0.6,0.4,1.2,0.4h0.4v0.4h-5.6v-0.4h0.5c0.6,0,1-0.2,1.2-0.5c0.1-0.2,0.2-0.7,0.2-1.4v-3.1l-3.6-5.5
			c-0.4-0.7-0.7-1.1-0.9-1.2s-0.5-0.4-1-0.6c-0.1-0.1-0.3-0.1-0.6-0.1v-0.4h5.7v0.4H142c-0.3,0-0.6,0.1-0.8,0.2s-0.4,0.4-0.4,0.6
			c0,0.2,0.2,0.7,0.6,1.3l2.8,4.3l2.6-4.1c0.4-0.6,0.6-1.1,0.6-1.4c0-0.2,0-0.3-0.1-0.5s-0.2-0.3-0.4-0.3s-0.4-0.1-0.8-0.1V36.9z"/>
		<path d="M163.6,36.6v4.6h-0.4c-0.1-0.9-0.3-1.6-0.6-2.1s-0.7-0.9-1.3-1.2s-1.1-0.5-1.7-0.5c-0.7,0-1.2,0.2-1.7,0.6
			s-0.7,0.9-0.7,1.4c0,0.4,0.1,0.8,0.4,1.1c0.4,0.5,1.4,1.1,2.9,2c1.2,0.7,2.1,1.2,2.5,1.5s0.8,0.8,1,1.3s0.4,1,0.4,1.5
			c0,1-0.4,1.9-1.2,2.6s-1.8,1.1-3,1.1c-0.4,0-0.7,0-1.1-0.1c-0.2,0-0.6-0.2-1.3-0.4s-1-0.3-1.2-0.3c-0.2,0-0.3,0-0.4,0.1
			s-0.2,0.3-0.2,0.6h-0.4v-4.5h0.4c0.2,1,0.4,1.7,0.7,2.1s0.7,0.9,1.3,1.2s1.2,0.5,1.9,0.5c0.8,0,1.5-0.2,1.9-0.6s0.7-0.9,0.7-1.5
			c0-0.3-0.1-0.7-0.3-1s-0.5-0.6-0.8-0.9c-0.3-0.2-0.9-0.6-2.1-1.2s-1.9-1.1-2.4-1.5s-0.8-0.8-1.1-1.2s-0.4-1-0.4-1.5
			c0-1,0.4-1.8,1.1-2.5s1.7-1,2.8-1c0.7,0,1.4,0.2,2.2,0.5c0.4,0.2,0.6,0.2,0.8,0.2c0.2,0,0.3-0.1,0.4-0.2s0.2-0.3,0.3-0.6H163.6z"
			/>
		<path d="M174.3,45.7h-5.1l-0.9,2.1c-0.2,0.5-0.3,0.9-0.3,1.2c0,0.2,0.1,0.4,0.3,0.5s0.6,0.3,1.2,0.3v0.4h-4.2v-0.4
			c0.6-0.1,0.9-0.2,1.1-0.4c0.3-0.3,0.7-0.9,1.1-1.9l4.7-10.9h0.3l4.6,11c0.4,0.9,0.7,1.5,1,1.7s0.7,0.4,1.3,0.4v0.4h-5.2v-0.4
			c0.5,0,0.9-0.1,1.1-0.3s0.3-0.3,0.3-0.5c0-0.3-0.1-0.7-0.4-1.4L174.3,45.7z M174.1,45l-2.2-5.4l-2.3,5.4H174.1z"/>
		<path d="M190.7,46.5l0.3,0.1l-1.1,3.6h-10.3v-0.4h0.5c0.6,0,1-0.2,1.2-0.5c0.1-0.2,0.2-0.7,0.2-1.4v-8.5c0-0.8-0.1-1.3-0.3-1.6
			c-0.3-0.3-0.6-0.4-1.1-0.4h-0.5v-0.4h6v0.4c-0.7,0-1.2,0.1-1.5,0.2s-0.5,0.3-0.6,0.5s-0.2,0.7-0.2,1.5v8.3c0,0.5,0.1,0.9,0.2,1.1
			c0.1,0.1,0.2,0.2,0.4,0.3s0.7,0.1,1.5,0.1h1c1,0,1.7-0.1,2.1-0.2s0.8-0.4,1.1-0.8S190.4,47.3,190.7,46.5z"/>
		<path d="M198.4,36.6c1.7,0,3.2,0.7,4.5,2s1.9,2.9,1.9,4.9c0,2-0.6,3.7-1.9,5s-2.8,2-4.6,2c-1.8,0-3.4-0.6-4.6-1.9s-1.9-3-1.9-5
			c0-2.1,0.7-3.8,2.1-5.1C195.2,37.2,196.7,36.6,198.4,36.6z M198.3,37.3c-1.2,0-2.1,0.4-2.9,1.3c-0.9,1.1-1.3,2.7-1.3,4.8
			c0,2.2,0.5,3.8,1.4,5c0.7,0.9,1.6,1.3,2.8,1.3c1.2,0,2.3-0.5,3.1-1.5s1.2-2.5,1.2-4.6c0-2.3-0.4-4-1.3-5.1
			C200.5,37.7,199.5,37.3,198.3,37.3z"/>
		<path d="M204.9,36.9h3.6l8.1,9.9v-7.6c0-0.8-0.1-1.3-0.3-1.5c-0.2-0.3-0.6-0.4-1.1-0.4h-0.5v-0.4h4.6v0.4h-0.5
			c-0.6,0-1,0.2-1.2,0.5c-0.1,0.2-0.2,0.7-0.2,1.4v11.2h-0.4l-8.7-10.7v8.2c0,0.8,0.1,1.3,0.3,1.5c0.2,0.3,0.6,0.4,1.1,0.4h0.5v0.4
			h-4.6v-0.4h0.5c0.6,0,1-0.2,1.2-0.5c0.1-0.2,0.2-0.7,0.2-1.4v-9.2c-0.4-0.4-0.7-0.7-0.9-0.9s-0.5-0.3-0.9-0.4
			c-0.2-0.1-0.5-0.1-0.9-0.1V36.9z"/>
	</g>
	<g>
		<polygon class="st0" points="62.3,68.4 66.6,58.9 57.9,58.9 		"/>
		<path class="st0" d="M161.4,4.9c-3.9,0-8.3,0.6-13.2,1.9v20.6H194c-1.6-4.6-4.1-8.6-7.3-12C180.2,8.4,171.7,4.9,161.4,4.9z"/>
		<path class="st0" d="M148.2,81.1c5.5,1.2,10,1.8,13.7,1.8c10,0,18.2-3.5,24.8-10.5c3.5-3.8,6.1-8.3,7.7-13.5h-46.3V81.1z"/>
		<polygon class="st0" points="23.9,27.4 30.1,27.4 23.9,13.9 		"/>
		<polygon class="st0" points="87.3,27.4 93.5,27.4 93.5,13.9 		"/>
		<path d="M23.9,13.9l6.2,13.5h13.2L30.6,0H5.8v2.4c3.6,0,6.2,0.4,7.8,1.3s2.7,1.9,3.3,3.1c0.9,1.7,1.3,4.5,1.3,8.4v12.2h5.7V13.9z"
			/>
		<path d="M93.5,13.9v13.5h12.4V15.1c0-4.9,0.5-8,1.4-9.4c1.5-2.2,4.2-3.4,7.9-3.4h3V0H93.5L81,27.4h6.3L93.5,13.9z"/>
		<polygon points="62.3,68.4 57.9,58.9 44.6,58.9 57.6,87.4 59.8,87.4 72.8,58.9 66.6,58.9 		"/>
		<path d="M18.2,72.3c0,4.9-0.5,8-1.4,9.4c-1.5,2.2-4.2,3.4-7.9,3.4H5.8v2.4h30.4V85h-3.1c-3.4,0-6-0.9-7.5-2.7
			c-1.2-1.3-1.7-4.7-1.7-10.1V58.9h-5.7V72.3z"/>
		<path d="M93.5,72.3c0,4.9-0.5,8-1.4,9.4c-1.5,2.2-4.1,3.4-7.9,3.4h-3.1v2.4h37.1V85h-3c-3.4,0-6-0.9-7.5-2.7
			c-1.2-1.3-1.8-4.7-1.8-10.1V58.9H93.5V72.3z"/>
		<path d="M148.2,6.8c4.9-1.2,9.3-1.9,13.2-1.9c10.3,0,18.8,3.5,25.3,10.4c3.2,3.4,5.6,7.4,7.3,12h14.8c-1-2.8-2.2-5.6-3.7-8.1
			c-4.1-6.9-9.6-11.9-16.4-14.8c-6.8-3-16.7-4.4-29.8-4.4h-35.6v2.4h3.3c3.3,0,5.8,0.9,7.5,2.8c1.2,1.4,1.8,4.8,1.8,10.2v11.9h12.4
			V6.8z"/>
		<path d="M186.7,72.4c-6.6,7-14.8,10.5-24.8,10.5c-3.7,0-8.3-0.6-13.7-1.8V58.9h-12.4v13c0,4.9-0.5,8.1-1.4,9.5
			c-1.5,2.4-4.2,3.5-7.9,3.5h-3.3v2.4h39.1c17,0,29.6-4.6,37.9-13.7c4-4.4,6.8-9.3,8.7-14.8h-14.4C192.8,64.1,190.3,68.6,186.7,72.4
			z"/>
	</g>
</g>
</svg>
