<?xml version="1.0" encoding="UTF-8" standalone="no"?>
<!DOCTYPE svg PUBLIC "-//W3C//DTD SVG 1.1//EN"
"http://www.w3.org/Graphics/SVG/1.1/DTD/svg11.dtd">


<!-- Page 1 -->
<svg x="0" y="0" width="1286" height="909" viewBox="0 0 1286 909" version="1.1" xmlns="http://www.w3.org/2000/svg" xmlns:xlink="http://www.w3.org/1999/xlink"
style="display: block;margin-left: auto;margin-right: auto;">
<defs>
<clipPath id="c_1"><path d="M0,0H1286V909H0Z"/></clipPath>
<clipPath id="c0"><path d="M0,909.5V0H1286.3V909.5Z"/></clipPath>

<style type="text/css"><![CDATA[
text { white-space: pre; }
path, image { pointer-events: none; }
text::-moz-selection {
	color: transparent;
	background: rgba(0, 106, 173, 0.4);
}
text::selection {
	color: transparent;
	background: rgba(0, 106, 173, 0.4);
}

.s1{
font-size: 99.40px;
font-family: CopperplateGothic-Bold_5;
fill: TRANSPARENT;
}
.s2{
font-size: 83.97px;
font-family: CopperplateGothic-Bold_5;
fill: TRANSPARENT;
}

.g0{
}
.g1{
fill: none;
stroke: #FFFFFF;
stroke-width: 1.145;
stroke-linecap: butt;
stroke-linejoin: round;
}
.g2{
fill: none;
stroke: #000000;
stroke-width: 3.437;
stroke-linecap: butt;
stroke-linejoin: miter;
stroke-miterlimit: 8;
}

]]></style>

</defs>
<g clip-path="url(#c_1)">
<path d="M0,0
L0,909
L1286,909
L1286,0 Z " 
fill="#FFFFFF" stroke="none"/>
<image preserveAspectRatio="none" x="486" y="278" width="98" height="79" xlink:href="1/img/1.png"/>
<path fill-rule="evenodd" d="M484.8,277.6h29.9v3.6c-1.7,.4,-2.5,1.1,-2.5,2c0,.6,.1,1,.2,1.4l19,37.1l18.9,-35.9c.8,-1.5,1.2,-2.5,1.2,-3c0,-.8,-.9,-1.3,-2.7,-1.5v-3.7h29.4v3.6c-1.6,.4,-2.5,.8,-2.9,1.2c-.3,.4,-.5,1,-.5,1.8V345c0,.9,.2,1.5,.5,1.9c.4,.3,1.3,.8,2.9,1.2v3.5H553.6v-3.5c1.5,-.4,2.5,-.8,2.8,-1.2c.4,-.4,.6,-1,.6,-1.9V302l-27,49.6L504.7,302v43c0,.9,.2,1.5,.6,1.9c.3,.3,1.2,.8,2.8,1.2v3.5H484.8v-3.5c1.5,-.5,2.5,-.9,2.8,-1.2c.4,-.4,.5,-1,.5,-1.9V284.2c0,-.8,-.1,-1.4,-.5,-1.8c-.3,-.4,-1.3,-.8,-2.8,-1.2Z" class="g0"/>
<path d="M484.8,277.6h29.9v3.6c-1.7,.4,-2.5,1.1,-2.5,2c0,.6,.1,1,.2,1.4l19,37.1l18.9,-35.9c.8,-1.5,1.2,-2.5,1.2,-3c0,-.8,-.9,-1.3,-2.7,-1.5v-3.7h29.4v3.6c-1.6,.4,-2.5,.8,-2.9,1.2c-.3,.4,-.5,1,-.5,1.8V345c0,.9,.2,1.5,.5,1.9c.4,.3,1.3,.8,2.9,1.2v3.5H553.6v-3.5c1.5,-.4,2.5,-.8,2.8,-1.2c.4,-.4,.6,-1,.6,-1.9V302l-27,49.6L504.7,302v43c0,.9,.2,1.5,.6,1.9c.3,.3,1.2,.8,2.8,1.2v3.5H484.8v-3.5c1.5,-.5,2.5,-.9,2.8,-1.2c.4,-.4,.5,-1,.5,-1.9V284.2c0,-.8,-.1,-1.4,-.5,-1.8c-.3,-.4,-1.3,-.8,-2.8,-1.2Z" class="g1"/>
<image preserveAspectRatio="none" x="589" y="300" width="63" height="58" xlink:href="1/img/2.png"/>
<path fill-rule="evenodd" d="M617.7,310.7c-4.8,0,-8.7,1.6,-11.7,4.6c-2.7,2.9,-4.1,6.5,-4.1,10.9c0,4.3,1.4,7.9,4.1,10.8c3,3.1,6.9,4.6,11.8,4.6c4.8,0,8.7,-1.5,11.7,-4.6c2.8,-2.9,4.2,-6.4,4.2,-10.6c0,-4.6,-1.4,-8.3,-4.2,-11.1c-3,-3,-7,-4.5,-11.8,-4.6Zm.9,-11.1c7.4,0,13.9,2.6,19.6,7.7c6.2,4,9.3,10.4,9.3,19.3c0,8.3,-3.2,15,-9.7,19.9c-5.3,4.2,-12,6.2,-20,6.2c-8,0,-14.8,-2.5,-20.4,-7.4c-6.2,-4.1,-9.3,-10.5,-9.3,-19.1c0,-8.7,3.2,-15.5,9.7,-20.4c5.3,-4,12.3,-6.1,20.8,-6.2Z" class="g0"/>
<path d="M617.7,310.7c-4.8,0,-8.7,1.6,-11.7,4.6c-2.7,2.9,-4.1,6.5,-4.1,10.9c0,4.3,1.4,7.9,4.1,10.8c3,3.1,6.9,4.6,11.8,4.6c4.8,0,8.7,-1.5,11.7,-4.6c2.8,-2.9,4.2,-6.4,4.2,-10.6c0,-4.6,-1.4,-8.3,-4.2,-11.1c-3,-3,-7,-4.5,-11.8,-4.6Zm.9,-11.1c7.4,0,13.9,2.6,19.6,7.7c6.2,4,9.3,10.4,9.3,19.3c0,8.3,-3.2,15,-9.7,19.9c-5.3,4.2,-12,6.2,-20,6.2c-8,0,-14.8,-2.5,-20.4,-7.4c-6.2,-4.1,-9.3,-10.5,-9.3,-19.1c0,-8.7,3.2,-15.5,9.7,-20.4c5.3,-4,12.3,-6.1,20.8,-6.2Z" class="g1"/>
<image preserveAspectRatio="none" x="657" y="278" width="86" height="79" xlink:href="1/img/3.png"/>
<path fill-rule="evenodd" d="M677.8,291.6v46h18.6c6.1,0,10.7,-.8,13.7,-2.4c6.4,-3.5,9.6,-10.4,9.6,-20.6c0,-7.4,-1.7,-13.1,-5.2,-17c-1.9,-2.1,-4.3,-3.7,-7,-4.6c-2.7,-.9,-6.4,-1.4,-11.1,-1.4Zm-21.3,-14h41.2c9,0,15.8,1.1,20.7,3.1c7,3.1,11.9,7.8,14.7,14.3c3.2,5.9,4.8,12.4,4.8,19.6c0,12.7,-3.9,22.4,-11.8,29.2c-3.3,2.8,-7.2,4.8,-11.6,6c-4.4,1.2,-10,1.8,-16.8,1.8H656.5v-3.5c1.6,-.5,2.6,-.9,2.9,-1.2c.4,-.4,.5,-1,.5,-1.9V284.2c0,-.8,-.1,-1.4,-.5,-1.8c-.3,-.4,-1.3,-.8,-2.9,-1.2Z" class="g0"/>
<path d="M677.8,291.6v46h18.6c6.1,0,10.7,-.8,13.7,-2.4c6.4,-3.5,9.6,-10.4,9.6,-20.6c0,-7.4,-1.7,-13.1,-5.2,-17c-1.9,-2.1,-4.3,-3.7,-7,-4.6c-2.7,-.9,-6.4,-1.4,-11.1,-1.4Zm-21.3,-14h41.2c9,0,15.8,1.1,20.7,3.1c7,3.1,11.9,7.8,14.7,14.3c3.2,5.9,4.8,12.4,4.8,19.6c0,12.7,-3.9,22.4,-11.8,29.2c-3.3,2.8,-7.2,4.8,-11.6,6c-4.4,1.2,-10,1.8,-16.8,1.8H656.5v-3.5c1.6,-.5,2.6,-.9,2.9,-1.2c.4,-.4,.5,-1,.5,-1.9V284.2c0,-.8,-.1,-1.4,-.5,-1.8c-.3,-.4,-1.3,-.8,-2.9,-1.2Z" class="g1"/>
<image preserveAspectRatio="none" x="746" y="300" width="64" height="58" xlink:href="1/img/4.png"/>
<path fill-rule="evenodd" d="M775.4,310.7c-4.8,0,-8.7,1.6,-11.7,4.6c-2.8,2.9,-4.1,6.5,-4.1,10.9c0,4.3,1.3,7.9,4.1,10.8c3,3.1,6.9,4.6,11.7,4.6c4.9,0,8.7,-1.5,11.8,-4.6c2.7,-2.9,4.1,-6.4,4.1,-10.6c0,-4.6,-1.4,-8.3,-4.1,-11.1c-3.1,-3,-7,-4.5,-11.8,-4.6Zm.9,-11.1c7.4,0,13.9,2.6,19.5,7.7c6.3,4,9.4,10.4,9.4,19.3c0,8.3,-3.3,15,-9.7,19.9c-5.3,4.2,-12,6.2,-20.1,6.2c-8,0,-14.8,-2.5,-20.3,-7.4c-6.2,-4.1,-9.4,-10.5,-9.4,-19.1c0,-8.7,3.3,-15.5,9.8,-20.4c5.3,-4,12.2,-6.1,20.8,-6.2Z" class="g0"/>
<path d="M775.4,310.7c-4.8,0,-8.7,1.6,-11.7,4.6c-2.8,2.9,-4.1,6.5,-4.1,10.9c0,4.3,1.3,7.9,4.1,10.8c3,3.1,6.9,4.6,11.7,4.6c4.9,0,8.7,-1.5,11.8,-4.6c2.7,-2.9,4.1,-6.4,4.1,-10.6c0,-4.6,-1.4,-8.3,-4.1,-11.1c-3.1,-3,-7,-4.5,-11.8,-4.6Zm.9,-11.1c7.4,0,13.9,2.6,19.5,7.7c6.3,4,9.4,10.4,9.4,19.3c0,8.3,-3.3,15,-9.7,19.9c-5.3,4.2,-12,6.2,-20.1,6.2c-8,0,-14.8,-2.5,-20.3,-7.4c-6.2,-4.1,-9.4,-10.5,-9.4,-19.1c0,-8.7,3.3,-15.5,9.8,-20.4c5.3,-4,12.2,-6.1,20.8,-6.2Z" class="g1"/>
<g clip-path="url(#c0)">
<g fill="#000000" >
<use xlink:href="#f0_18" transform="matrix(65.1,0,0,65.1,309.1,491.8)" />
<use xlink:href="#f0_1x" transform="matrix(65.1,0,0,65.1,394.4,491.8)" />
<use xlink:href="#f0_25" transform="matrix(65.1,0,0,65.1,463.4,491.8)" />
<use xlink:href="#f0_2e" transform="matrix(65.1,0,0,65.1,491.9,491.8)" />
<use xlink:href="#f0_a" transform="matrix(55,0,0,55,585.1,491.8)" />
</g>
</g>
<text x="309" y="491" dx="0,0,0,-.3,0" class="s1">Hair </text>
<text x="585" y="491" class="s2">&amp;</text>
<g clip-path="url(#c0)">
<g fill="#000000" >
<use xlink:href="#f0_1e" transform="matrix(65.1,0,0,65.1,674.7,491.8)" />
<use xlink:href="#f0_1x" transform="matrix(65.1,0,0,65.1,761.4,491.8)" />
<use xlink:href="#f0_25" transform="matrix(65.1,0,0,65.1,830.4,491.8)" />
<use xlink:href="#f0_28" transform="matrix(65.1,0,0,65.1,859.2,491.8)" />
<use xlink:href="#f0_2f" transform="matrix(65.1,0,0,65.1,916.3,491.8)" />
</g>
</g>
<text x="674" y="491" dx="0,0,0,0,0,-.3" class="s1">Nails </text>
<path d="M224.9,404.3c0,-97.4,186.2,-176.4,416,-176.4c229.7,0,415.9,79,415.9,176.4c0,97.4,-186.2,176.4,-415.9,176.4c-229.8,0,-416,-79,-416,-176.4Z" class="g2"/>

</g>
<defs>
<path d="M92,0V23c0,0,27,8,37,20c0,0,11,12,11,34V941c0,0,0,22,-11,34c0,0,-10,12,-37,19v24H410V994c0,0,-27,-6,-38,-19c0,0,-10,-12,-10,-34V612H949V941c0,0,0,22,-11,34c0,0,-10,13,-37,19v24h318V994c0,0,-27,-7,-38,-19c0,0,-10,-12,-10,-34V77c0,0,0,-22,10,-34c0,0,11,-12,38,-20V0H901V23c0,0,26,7,37,19c0,0,11,13,11,35V444H362V77c0,0,0,-22,11,-35c0,0,10,-12,37,-19V0Z"
id="f0_18"
transform="scale(0.001,-0.001)"/>

<path d="M646,327L510,594L381,327ZM4,0V21c0,0,28,4,42,17c0,0,14,12,33,50L384,706c0,0,17,36,17,62c0,0,0,30,-42,47v21H684V815c0,0,-41,-16,-41,-50c0,0,0,-25,18,-61L977,104c0,0,27,-49,41,-63c0,0,15,-15,46,-20V0H723V21c0,0,49,8,49,45c0,0,0,23,-19,57l-46,86H323L280,118c0,0,-16,-33,-16,-52c0,0,0,-36,48,-45V0Z"
id="f0_1x"
transform="scale(0.001,-0.001)"/>

<path d="M73,0V21c0,0,27,6,37,19c0,0,11,13,11,36V760c0,0,0,23,-10,35c0,0,-11,12,-38,20v21H369V815c0,0,-27,-7,-38,-19c0,0,-10,-13,-10,-36V77c0,0,0,-24,10,-36c0,0,11,-12,38,-20V0Z"
id="f0_25"
transform="scale(0.001,-0.001)"/>

<path d="M622,495c0,0,69,0,102,15c0,0,46,20,46,80c0,0,0,53,-32,74c0,0,-33,20,-116,20H321V495ZM73,0V21c0,0,27,6,37,19c0,0,11,13,11,36V760c0,0,0,23,-10,35c0,0,-11,12,-38,20v21H621c0,0,106,0,162,-11c0,0,56,-11,100,-39c0,0,91,-59,91,-193c0,0,0,-101,-56,-158c0,0,-56,-58,-179,-83L897,132c0,0,43,-62,69,-84c0,0,26,-22,58,-27V0H673V21c0,0,39,10,39,33c0,0,0,16,-24,50L521,343H321V76c0,0,0,-23,10,-35c0,0,11,-12,38,-20V0Z"
id="f0_2e"
transform="scale(0.001,-0.001)"/>

<path d="M463,156c0,0,96,0,163,48c0,0,67,47,67,111c0,0,0,31,-20,68c0,0,-21,36,-52,61c0,0,-69,56,-164,57c0,0,-84,0,-145,-49c0,0,-61,-48,-61,-121c0,0,0,-76,60,-125c0,0,59,-50,152,-50Zm47,472c0,0,58,0,100,27c0,0,55,36,55,99c0,0,0,57,-43,93c0,0,-42,36,-112,37c0,0,-57,0,-99,-28c0,0,-55,-35,-55,-101c0,0,0,-55,44,-91c0,0,43,-36,110,-36ZM437,-17c0,0,-163,0,-270,77C167,60,45,147,45,290c0,0,0,192,227,303c0,0,-101,88,-101,192c0,0,0,122,117,193c0,0,94,57,217,57c0,0,137,0,240,-68c0,0,101,-67,101,-186c0,0,0,-67,-30,-113c0,0,-29,-46,-105,-100c0,0,77,-50,120,-141c0,0,71,123,140,184c0,0,68,61,171,90V418h-24c0,0,-5,38,-23,38c0,0,-16,0,-49,-22c0,0,-33,-22,-57,-49c0,0,-44,-48,-61,-105c0,0,46,-47,80,-67c0,0,34,-19,70,-19c0,0,32,0,40,35h24V-5c0,0,-21,5,-131,10c0,0,-43,3,-106,40c0,0,-63,36,-108,85C797,130,645,-17,437,-17Z"
id="f0_a"
transform="scale(0.001,-0.001)"/>

<path d="M92,0V23c0,0,27,8,37,20c0,0,11,12,11,35V941c0,0,0,22,-11,34c0,0,-10,12,-37,19v24H438V994c0,0,-32,-8,-32,-34c0,0,0,-18,21,-39L988,336V941c0,0,0,22,-10,34c0,0,-11,12,-37,19v24h299V994c0,0,-27,-7,-38,-19c0,0,-10,-12,-10,-34V78c0,0,0,-23,10,-35c0,0,11,-12,38,-20V0H919V23c0,0,31,7,31,33c0,0,0,14,-36,52L343,697V78c0,0,0,-23,11,-35c0,0,10,-12,37,-20V0Z"
id="f0_1e"
transform="scale(0.001,-0.001)"/>

<path d="M844,-47c0,0,-7,27,-20,38c0,0,-12,9,-36,9H73V21c0,0,27,6,37,19c0,0,11,13,11,36V760c0,0,0,23,-10,35c0,0,-11,12,-38,20v21H369V815c0,0,-27,-7,-38,-19c0,0,-10,-13,-10,-36V152H788c0,0,24,0,36,10c0,0,12,10,20,37h21V-47Z"
id="f0_28"
transform="scale(0.001,-0.001)"/>

<path d="M480,-17c0,0,-189,0,-365,79c0,0,-12,6,-20,6C95,68,80,68,68,50L49,57l86,205l18,-8c0,0,0,-4,0,-6c0,0,0,-19,15,-33c0,0,38,-33,129,-57c0,0,92,-24,182,-24c0,0,79,0,142,21c0,0,77,25,77,82c0,0,0,45,-54,63c0,0,-35,12,-129,20L398,330c0,0,-95,7,-145,19c0,0,-50,12,-87,35c0,0,-48,30,-75,82c0,0,-26,51,-26,112c0,0,0,138,117,210c0,0,108,66,266,66c0,0,86,0,160,-19c0,0,74,-20,177,-67c0,0,31,-15,43,-15c0,0,12,0,30,17l18,-10L775,565l-17,10c0,0,0,25,-16,39c0,0,-43,38,-126,62c0,0,-82,25,-167,25c0,0,-73,0,-129,-20c0,0,-80,-29,-80,-84c0,0,0,-37,38,-52c0,0,39,-15,150,-24l118,-9c0,0,155,-12,235,-60c0,0,45,-27,74,-71c0,0,37,-56,37,-126c0,0,0,-128,-115,-202c0,0,-110,-70,-297,-70Z"
id="f0_2f"
transform="scale(0.001,-0.001)"/>


</defs>

<!-- Any embedded fonts defined here -->
<style type="text/css" ><![CDATA[

@font-face {
	font-family: CopperplateGothic-Bold_5;
	src: url("fonts/CopperplateGothic-Bold_5.woff") format("woff");
}

]]></style>

</svg>
